<svg xmlns="http://www.w3.org/2000/svg" viewBox="0 0 670.33 173"><defs><style>.cls-1,.cls-2{fill:#fff;}.cls-2{font-size:119px;font-family:Montserrat-Bold, Montserrat;font-weight:700;}.cls-3{fill:#f1f1f1;}.cls-4{fill:#b2a8a8;}</style></defs><g id="Capa_2" data-name="Capa 2"><g id="Capa_1-2" data-name="Capa 1"><rect class="cls-1" x="200.47" width="4" height="173"/><text class="cls-2" transform="translate(238.33 121.58)">edcrux</text><path class="cls-3" d="M8.5,129.94a8.51,8.51,0,0,1-8.5-8.6V82a8.58,8.58,0,0,1,8.5-8.6A8.51,8.51,0,0,1,17,82v39.3A8.45,8.45,0,0,1,8.5,129.94Z"/><path class="cls-4" d="M37.1,139.34a8.51,8.51,0,0,1-8.5-8.6v-73a8.5,8.5,0,1,1,17,0v73.1a8.43,8.43,0,0,1-8.5,8.5Z"/><path class="cls-3" d="M65.7,121.84a8.51,8.51,0,0,1-8.5-8.6V88a8.5,8.5,0,1,1,17,0v25.2a8.51,8.51,0,0,1-8.5,8.6Z"/><path d="M94.3,129.94a8.51,8.51,0,0,1-8.5-8.6V31.24a8.5,8.5,0,1,1,17,0v90.2a8.49,8.49,0,0,1-8.5,8.5Z"/><path class="cls-3" d="M122.9,155.64a8.51,8.51,0,0,1-8.5-8.6V82a8.5,8.5,0,1,1,17,0v65A8.51,8.51,0,0,1,122.9,155.64Z"/><path d="M151.5,129.94a8.51,8.51,0,0,1-8.5-8.6V71.84a8.5,8.5,0,1,1,17,0v49.6a8.49,8.49,0,0,1-8.5,8.5Z"/></g></g></svg>