<svg xmlns="http://www.w3.org/2000/svg" viewBox="0 0 669.46 173"><defs><style>.cls-1{fill:#fff;}.cls-2{fill:#f1f1f1;}.cls-3{fill:#b2a8a8;}</style></defs><g id="Capa_2" data-name="Capa 2"><g id="Capa_1-2" data-name="Capa 1"><rect class="cls-1" x="200.47" width="4" height="173"/><path class="cls-1" d="M309.25,94.8H260.82a15.06,15.06,0,0,0,6.18,9.4,20.52,20.52,0,0,0,12.14,3.45,24.66,24.66,0,0,0,8.87-1.48,21.6,21.6,0,0,0,7.2-4.7l9.87,10.71q-9,10.35-26.41,10.35a41.74,41.74,0,0,1-19.16-4.23,30.84,30.84,0,0,1-12.85-11.72,32.26,32.26,0,0,1-4.53-17,32.67,32.67,0,0,1,4.47-17,31.19,31.19,0,0,1,12.25-11.78,37.91,37.91,0,0,1,34.45-.18,29.48,29.48,0,0,1,12,11.6,34.56,34.56,0,0,1,4.35,17.55C309.61,90,309.49,91.71,309.25,94.8ZM265.81,74.21A15.22,15.22,0,0,0,260.58,84h31.53a15.37,15.37,0,0,0-5.23-9.7,15.66,15.66,0,0,0-10.47-3.63A16,16,0,0,0,265.81,74.21Z"/><path class="cls-1" d="M387.2,33.28v88.3H369.46V114.2q-6.9,8.33-20,8.33a33.21,33.21,0,0,1-16.36-4,28.85,28.85,0,0,1-11.48-11.54,35.17,35.17,0,0,1-4.17-17.38,35.15,35.15,0,0,1,4.17-17.37,28.91,28.91,0,0,1,11.48-11.54,33.21,33.21,0,0,1,16.36-4q12.25,0,19.16,7.74V33.28Zm-22.85,69.2Q369,97.65,369,89.56t-4.64-12.91a16.67,16.67,0,0,0-23.45,0q-4.63,4.83-4.64,12.91t4.64,12.92a16.67,16.67,0,0,0,23.45,0Z"/><path class="cls-1" d="M416.88,118.3a31.56,31.56,0,0,1-12.73-11.72,32,32,0,0,1-4.58-17,32,32,0,0,1,4.58-17,31.56,31.56,0,0,1,12.73-11.72,39.36,39.36,0,0,1,18.39-4.23,35.59,35.59,0,0,1,17.67,4.23,25,25,0,0,1,11,12.08l-14.4,7.73q-5-8.81-14.4-8.81a16.3,16.3,0,0,0-12,4.76q-4.75,4.77-4.76,13t4.76,13a16.3,16.3,0,0,0,12,4.76q9.53,0,14.4-8.81l14.4,7.85a25.51,25.51,0,0,1-11,11.9,35.2,35.2,0,0,1-17.67,4.29A39.36,39.36,0,0,1,416.88,118.3Z"/><path class="cls-1" d="M501.37,59a33.47,33.47,0,0,1,13-2.38V73.74c-2.06-.16-3.45-.24-4.16-.24q-8,0-12.5,4.46t-4.52,13.39v30.23H474.66v-64h17.73V66A20.66,20.66,0,0,1,501.37,59Z"/><path class="cls-1" d="M590.44,57.55v64H572.83V114a24.61,24.61,0,0,1-8.8,6.37,27.9,27.9,0,0,1-11.07,2.2q-12.62,0-20-7.26t-7.38-21.54V57.55h18.56V91q0,15.48,13,15.47a13.91,13.91,0,0,0,10.71-4.34q4-4.35,4-12.91V57.55Z"/><path class="cls-1" d="M648.4,121.58l-14-19.64-14.51,19.64H599.61l24.63-32.25-23.8-31.78h20.82l13.57,18.69,13.92-18.69h19.76l-23.8,31.3,24.75,32.73Z"/><path class="cls-2" d="M8.5,129.94a8.51,8.51,0,0,1-8.5-8.6V82a8.58,8.58,0,0,1,8.5-8.6A8.51,8.51,0,0,1,17,82v39.3A8.45,8.45,0,0,1,8.5,129.94Z"/><path class="cls-3" d="M37.1,139.34a8.51,8.51,0,0,1-8.5-8.6v-73a8.5,8.5,0,1,1,17,0v73.1a8.43,8.43,0,0,1-8.5,8.5Z"/><path class="cls-2" d="M65.7,121.84a8.51,8.51,0,0,1-8.5-8.6V88a8.5,8.5,0,1,1,17,0v25.2a8.51,8.51,0,0,1-8.5,8.6Z"/><path d="M94.3,129.94a8.51,8.51,0,0,1-8.5-8.6V31.24a8.5,8.5,0,1,1,17,0v90.2a8.49,8.49,0,0,1-8.5,8.5Z"/><path class="cls-2" d="M122.9,155.64a8.51,8.51,0,0,1-8.5-8.6V82a8.5,8.5,0,1,1,17,0v65A8.51,8.51,0,0,1,122.9,155.64Z"/><path d="M151.5,129.94a8.51,8.51,0,0,1-8.5-8.6V71.84a8.5,8.5,0,1,1,17,0v49.6a8.49,8.49,0,0,1-8.5,8.5Z"/></g></g></svg>